<?xml version="1.0"?>
<svg version="1.1" xmlns="http://www.w3.org/2000/svg" xmlns:xlink="http://www.w3.org/1999/xlink" width="640" height="480">
    <desc iVinci="yes" version="4.6" gridStep="20" showGrid="no" snapToGrid="no" codePlatform="0"/>
    <g id="Layer1" name="Layer 1" opacity="1">
        <g id="Shape1">
            <desc shapeID="1" type="0" basicInfo-basicType="4" basicInfo-roundedRectRadius="12" basicInfo-polygonSides="6" basicInfo-starPoints="5" bounding="rect(-116.5,-102,233,204)" text="" font-familyName="Helvetica" font-pixelSize="20" font-bold="0" font-underline="0" font-alignment="1" strokeStyle="0" markerStart="0" markerEnd="0" shadowEnabled="0" shadowOffsetX="0" shadowOffsetY="2" shadowBlur="4" shadowOpacity="160" blurEnabled="0" blurRadius="4" transform="matrix(2.74678,0,0,2.35294,320,240)" pers-center="0,0" pers-size="0,0" pers-start="0,0" pers-end="0,0" locked="0" mesh="" flag=""/>
            <path id="shapePath1" d="M0,240 C0,107.452 143.269,-1.52588e-05 320,-1.52588e-05 C496.731,-1.52588e-05 640,107.452 640,240 C640,372.548 496.731,480 320,480 C143.269,480 0,372.548 0,240 Z" style="stroke:#323232;stroke-opacity:1;stroke-width:1;stroke-linejoin:miter;stroke-miterlimit:2;stroke-linecap:round;fill-rule:evenodd;fill:#969696;fill-opacity:1;"/>
        </g>
        <g id="Shape2">
            <desc shapeID="2" type="2" basicInfo-basicType="0" basicInfo-roundedRectRadius="12" basicInfo-polygonSides="6" basicInfo-starPoints="5" bounding="rect(-68,-35.5,136,71)" text="BankPro" font-familyName="Helvetica" font-pixelSize="20" font-bold="0" font-underline="0" font-alignment="1" strokeStyle="0" markerStart="0" markerEnd="0" shadowEnabled="0" shadowOffsetX="0" shadowOffsetY="2" shadowBlur="4" shadowOpacity="160" blurEnabled="0" blurRadius="4" transform="matrix(1,0,0,1,315,242.092)" pers-center="0,0" pers-size="0,0" pers-start="0,0" pers-end="0,0" locked="0" mesh="" flag=""/>
            <path id="shapePath2" d="M283.602,238.701 C284.422,238.701 285.06,238.587 285.516,238.359 C286.232,238.001 286.59,237.357 286.59,236.426 C286.59,235.488 286.209,234.857 285.447,234.531 C285.018,234.349 284.38,234.258 283.533,234.258 L280.066,234.258 L280.066,238.701 L283.602,238.701 M284.256,245.322 C285.447,245.322 286.297,244.977 286.805,244.287 C287.124,243.851 287.283,243.324 287.283,242.705 C287.283,241.663 286.818,240.954 285.887,240.576 C285.392,240.374 284.738,240.273 283.924,240.273 L280.066,240.273 L280.066,245.322 L284.256,245.322 M278.162,232.637 L284.324,232.637 C286.004,232.637 287.199,233.138 287.908,234.141 C288.325,234.733 288.533,235.417 288.533,236.191 C288.533,237.096 288.276,237.839 287.762,238.418 C287.495,238.724 287.111,239.004 286.609,239.258 C287.345,239.538 287.895,239.854 288.26,240.205 C288.904,240.83 289.227,241.693 289.227,242.793 C289.227,243.717 288.937,244.554 288.357,245.303 C287.492,246.423 286.115,246.982 284.227,246.982 L278.162,246.982 L278.162,232.637 M293.209,245.4 C293.58,245.693 294.02,245.84 294.527,245.84 C295.146,245.84 295.745,245.697 296.324,245.41 C297.301,244.935 297.789,244.157 297.789,243.076 L297.789,241.66 C297.574,241.797 297.298,241.911 296.959,242.002 C296.62,242.093 296.288,242.158 295.963,242.197 L294.898,242.334 C294.26,242.419 293.782,242.552 293.463,242.734 C292.923,243.04 292.652,243.529 292.652,244.199 C292.652,244.707 292.838,245.107 293.209,245.4 M296.91,240.645 C297.314,240.592 297.584,240.423 297.721,240.137 C297.799,239.98 297.838,239.756 297.838,239.463 C297.838,238.864 297.625,238.429 297.198,238.159 C296.772,237.889 296.161,237.754 295.367,237.754 C294.449,237.754 293.798,238.001 293.414,238.496 C293.199,238.77 293.059,239.176 292.994,239.717 L291.354,239.717 C291.386,238.428 291.804,237.531 292.608,237.026 C293.412,236.522 294.345,236.27 295.406,236.27 C296.637,236.27 297.636,236.504 298.404,236.973 C299.166,237.441 299.547,238.171 299.547,239.16 L299.547,245.186 C299.547,245.368 299.584,245.514 299.659,245.625 C299.734,245.736 299.892,245.791 300.133,245.791 C300.211,245.791 300.299,245.786 300.396,245.776 C300.494,245.767 300.598,245.752 300.709,245.732 L300.709,247.031 C300.436,247.109 300.227,247.158 300.084,247.178 C299.941,247.197 299.745,247.207 299.498,247.207 C298.893,247.207 298.453,246.992 298.18,246.562 C298.036,246.335 297.936,246.012 297.877,245.596 C297.519,246.064 297.005,246.471 296.334,246.816 C295.663,247.161 294.924,247.334 294.117,247.334 C293.147,247.334 292.354,247.039 291.739,246.45 C291.124,245.861 290.816,245.124 290.816,244.238 C290.816,243.268 291.119,242.516 291.725,241.982 C292.33,241.449 293.124,241.12 294.107,240.996 L296.91,240.645 M302.414,236.523 L304.084,236.523 L304.084,238.008 C304.579,237.396 305.103,236.956 305.656,236.689 C306.21,236.423 306.825,236.289 307.502,236.289 C308.986,236.289 309.989,236.807 310.51,237.842 C310.796,238.408 310.939,239.219 310.939,240.273 L310.939,246.982 L309.152,246.982 L309.152,240.391 C309.152,239.753 309.058,239.238 308.869,238.848 C308.557,238.197 307.99,237.871 307.17,237.871 C306.753,237.871 306.411,237.913 306.145,237.998 C305.663,238.141 305.24,238.428 304.875,238.857 C304.582,239.202 304.392,239.559 304.304,239.927 C304.216,240.295 304.172,240.82 304.172,241.504 L304.172,246.982 L302.414,246.982 L302.414,236.523 M313.484,232.637 L315.174,232.637 L315.174,240.967 L319.686,236.523 L321.932,236.523 L317.928,240.439 L322.156,246.982 L319.91,246.982 L316.648,241.709 L315.174,243.057 L315.174,246.982 L313.484,246.982 L313.484,232.637 M323.943,232.637 L330.398,232.637 C331.674,232.637 332.703,232.996 333.484,233.716 C334.266,234.435 334.656,235.446 334.656,236.748 C334.656,237.868 334.308,238.843 333.611,239.673 C332.915,240.503 331.844,240.918 330.398,240.918 L325.887,240.918 L325.887,246.982 L323.943,246.982 L323.943,232.637 M331.521,234.609 C331.092,234.408 330.503,234.307 329.754,234.307 L325.887,234.307 L325.887,239.277 L329.754,239.277 C330.626,239.277 331.334,239.092 331.878,238.721 C332.422,238.35 332.693,237.695 332.693,236.758 C332.693,235.703 332.303,234.987 331.521,234.609 M336.9,236.523 L338.57,236.523 L338.57,238.33 C338.707,237.979 339.042,237.55 339.576,237.046 C340.11,236.541 340.725,236.289 341.422,236.289 C341.454,236.289 341.51,236.292 341.588,236.299 C341.666,236.305 341.799,236.318 341.988,236.338 L341.988,238.193 C341.884,238.174 341.788,238.161 341.7,238.154 C341.612,238.148 341.516,238.145 341.412,238.145 C340.527,238.145 339.846,238.429 339.371,238.999 C338.896,239.569 338.658,240.225 338.658,240.967 L338.658,246.982 L336.9,246.982 L336.9,236.523 M350.056,244.526 C350.489,243.644 350.705,242.663 350.705,241.582 C350.705,240.605 350.549,239.811 350.236,239.199 C349.742,238.236 348.889,237.754 347.678,237.754 C346.604,237.754 345.822,238.164 345.334,238.984 C344.846,239.805 344.602,240.794 344.602,241.953 C344.602,243.066 344.846,243.994 345.334,244.736 C345.822,245.479 346.597,245.85 347.658,245.85 C348.824,245.85 349.623,245.409 350.056,244.526 M351.145,237.568 C352.076,238.467 352.541,239.788 352.541,241.533 C352.541,243.219 352.131,244.613 351.311,245.713 C350.49,246.813 349.217,247.363 347.492,247.363 C346.053,247.363 344.911,246.877 344.064,245.903 C343.218,244.93 342.795,243.623 342.795,241.982 C342.795,240.225 343.241,238.825 344.133,237.783 C345.025,236.742 346.223,236.221 347.727,236.221 C349.074,236.221 350.214,236.67 351.145,237.568 Z" style="stroke:none;fill-rule:nonzero;fill:#000000;fill-opacity:1;"/>
        </g>
    </g>
</svg>
