<?xml version="1.0" encoding="utf-8"?>
<svg version="1.1" xmlns="http://www.w3.org/2000/svg" xmlns:xlink="http://www.w3.org/1999/xlink" width="20" height="180" viewBox="0 0 20 180">
<symbol id="icon_line" width="20" height="20" viewBox="0 0 20 20" x="0" y="0">
<path d="M17.414 8.859c0-3.258-3.291-5.909-7.336-5.909s-7.336 2.651-7.336 5.909c0 2.921 2.61 5.368 6.135 5.83 0.239 0.051 0.564 0.157 0.646 0.359 0.074 0.184 0.049 0.472 0.024 0.658 0 0-0.086 0.514-0.105 0.624-0.032 0.184-0.148 0.72 0.635 0.392s4.225-2.469 5.763-4.228h-0c1.064-1.157 1.573-2.331 1.573-3.636zM7.207 10.797h-1.458c-0.212 0-0.384-0.171-0.384-0.382v-2.893c0-0.21 0.173-0.382 0.384-0.382s0.385 0.172 0.385 0.382v2.512h1.073c0.212 0 0.385 0.171 0.385 0.382s-0.172 0.382-0.385 0.382zM8.714 10.415c0 0.211-0.172 0.382-0.384 0.382s-0.384-0.171-0.384-0.382v-2.893c0-0.21 0.172-0.382 0.384-0.382s0.384 0.172 0.384 0.382v2.893zM12.223 10.415c0 0.165-0.106 0.311-0.263 0.363-0.040 0.013-0.081 0.020-0.122 0.020-0.12 0-0.235-0.057-0.307-0.153l-1.494-2.019v1.79c0 0.211-0.172 0.382-0.385 0.382s-0.385-0.171-0.385-0.382v-2.893c0-0.164 0.106-0.31 0.263-0.362 0.040-0.013 0.081-0.020 0.122-0.020 0.12 0 0.235 0.057 0.307 0.153l1.494 2.020v-1.791c0-0.21 0.173-0.382 0.385-0.382s0.385 0.172 0.385 0.382v2.893zM14.582 8.587c0.212 0 0.385 0.171 0.385 0.382s-0.172 0.382-0.385 0.382h-1.073v0.683h1.073c0.212 0 0.385 0.171 0.385 0.382s-0.173 0.382-0.385 0.382h-1.458c-0.212 0-0.385-0.171-0.385-0.382v-1.445c0-0 0-0 0-0.001s0-0.001 0-0.001v-1.446c0-0.21 0.173-0.382 0.385-0.382h1.458c0.212 0 0.385 0.172 0.385 0.382s-0.172 0.382-0.385 0.382h-1.073v0.683h1.073z"></path>
</symbol>
<symbol id="icon_google" width="20" height="20" viewBox="0 0 20 20">
<path d="M6.363 9.092v2.184h3.609c-0.145 0.938-1.090 2.746-3.609 2.746-2.172 0-3.945-1.801-3.945-4.020s1.773-4.020 3.945-4.020c1.238 0 2.063 0.527 2.535 0.98l1.727-1.664c-1.109-1.035-2.547-1.664-4.262-1.664-3.52 0.004-6.363 2.848-6.363 6.367s2.844 6.363 6.363 6.363c3.672 0 6.109-2.582 6.109-6.219 0-0.418-0.047-0.738-0.102-1.055h-6.008z"></path>
<path d="M20 8.908h-1.875v-1.875h-1.875v1.875h-1.875v1.875h1.875v1.875h1.875v-1.875h1.875z"></path>
</symbol>
<symbol id="icon_facebook" width="20" height="20" viewBox="0 0 20 20">
<path d="M18.125 0h-16.25c-1.031 0-1.875 0.844-1.875 1.875v16.25c0 1.031 0.844 1.875 1.875 1.875h8.125v-8.75h-2.5v-2.5h2.5v-1.25c0-2.066 1.684-3.75 3.75-3.75h2.5v2.5h-2.5c-0.688 0-1.25 0.563-1.25 1.25v1.25h3.75l-0.625 2.5h-3.125v8.75h5.625c1.031 0 1.875-0.844 1.875-1.875v-16.25c0-1.031-0.844-1.875-1.875-1.875z"></path>
</symbol>
<symbol id="icon_facebook2" width="20" height="20" viewBox="0 0 20 20" x="0" y="60">
<path fill="#3c5ea8" d="M18.125 0h-16.25c-1.031 0-1.875 0.844-1.875 1.875v16.25c0 1.031 0.844 1.875 1.875 1.875h8.125v-8.75h-2.5v-2.5h2.5v-1.25c0-2.066 1.684-3.75 3.75-3.75h2.5v2.5h-2.5c-0.688 0-1.25 0.563-1.25 1.25v1.25h3.75l-0.625 2.5h-3.125v8.75h5.625c1.031 0 1.875-0.844 1.875-1.875v-16.25c0-1.031-0.844-1.875-1.875-1.875z"></path>
</symbol>
<symbol id="icon_facebook3" width="20" height="20" viewBox="0 0 20 20" x="0" y="80">
<path d="M11.875 3.75h3.125v-3.75h-3.125c-2.412 0-4.375 1.963-4.375 4.375v1.875h-2.5v3.75h2.5v10h3.75v-10h3.125l0.625-3.75h-3.75v-1.875c0-0.339 0.286-0.625 0.625-0.625z"></path>
</symbol>
<symbol id="icon_twitter" width="20" height="20" viewBox="0 0 20 20">
<path d="M20.002 3.797c-0.734 0.328-1.527 0.547-2.355 0.645 0.848-0.508 1.496-1.313 1.805-2.27-0.793 0.469-1.672 0.813-2.605 0.996-0.75-0.797-1.816-1.293-2.996-1.293-2.266 0-4.102 1.836-4.102 4.102 0 0.32 0.035 0.633 0.105 0.934-3.41-0.172-6.434-1.805-8.457-4.289-0.352 0.605-0.555 1.313-0.555 2.063 0 1.422 0.723 2.68 1.824 3.414-0.672-0.020-1.305-0.207-1.859-0.512 0 0.016 0 0.035 0 0.051 0 1.988 1.414 3.648 3.293 4.023-0.344 0.094-0.707 0.145-1.082 0.145-0.266 0-0.52-0.027-0.773-0.074 0.523 1.629 2.039 2.816 3.832 2.852-1.406 1.102-3.172 1.758-5.098 1.758-0.332 0-0.656-0.020-0.98-0.059 1.82 1.168 3.977 1.844 6.293 1.844 7.547 0 11.676-6.254 11.676-11.676 0-0.18-0.004-0.355-0.012-0.531 0.801-0.574 1.496-1.297 2.047-2.121z"></path>
</symbol>
<symbol id="icon_linkedin" width="20" height="20" viewBox="0 0 20 20">
<path d="M7.5 6.875h3.459v1.773h0.049c0.481-0.863 1.659-1.773 3.415-1.773 3.651 0 4.327 2.273 4.327 5.229v6.021h-3.606v-5.337c0-1.273-0.026-2.911-1.876-2.911-1.878 0-2.164 1.386-2.164 2.818v5.43h-3.604v-11.25z"></path>
<path d="M1.25 6.875h3.75v11.25h-3.75v-11.25z"></path>
<path d="M5 3.75c0 1.036-0.839 1.875-1.875 1.875s-1.875-0.839-1.875-1.875c0-1.036 0.839-1.875 1.875-1.875s1.875 0.839 1.875 1.875z"></path>
</symbol>
<symbol id="icon_pinterest" width="20" height="20" viewBox="0 0 20 20" x="0" y="140">
<path d="M10 1.334c-4.785 0-8.664 3.879-8.664 8.664 0 3.672 2.285 6.805 5.508 8.066-0.074-0.684-0.145-1.738 0.031-2.484 0.156-0.676 1.016-4.305 1.016-4.305s-0.258-0.52-0.258-1.285c0-1.203 0.699-2.105 1.566-2.105 0.738 0 1.098 0.555 1.098 1.219 0 0.742-0.473 1.855-0.719 2.883-0.207 0.863 0.43 1.566 1.281 1.566 1.539 0 2.723-1.625 2.723-3.969 0-2.074-1.492-3.523-3.617-3.523-2.465 0-3.91 1.848-3.91 3.762 0 0.746 0.285 1.543 0.645 1.977 0.070 0.086 0.082 0.16 0.059 0.25-0.066 0.273-0.211 0.863-0.242 0.984-0.039 0.16-0.125 0.191-0.289 0.117-1.082-0.504-1.758-2.086-1.758-3.355 0-2.734 1.984-5.242 5.723-5.242 3.004 0 5.34 2.141 5.34 5.004 0 2.984-1.883 5.391-4.496 5.391-0.879 0-1.703-0.457-1.984-0.996 0 0-0.434 1.652-0.539 2.059-0.195 0.754-0.723 1.695-1.078 2.27 0.813 0.25 1.672 0.387 2.566 0.387 4.785 0 8.664-3.879 8.664-8.664 0-4.789-3.879-8.668-8.664-8.668z"></path>
</symbol>
</svg>
